# Wavefront OBJ file automatically generated by Tiled2Unity

# Vertices (Count = 314)
v -27 -40 0
v -28 -40 0
v -28 -39 0
v -27 -39 0
v -26 -40 0
v -26 -39 0
v -25 -40 0
v -25 -39 0
v -29 -36 0
v -30 -36 0
v -30 -35 0
v -29 -35 0
v -28 -36 0
v -28 -35 0
v -24 -36 0
v -25 -36 0
v -25 -35 0
v -24 -35 0
v -23 -36 0
v -23 -35 0
v -19 -36 0
v -20 -36 0
v -20 -35 0
v -19 -35 0
v -18 -36 0
v -18 -35 0
v -17 -36 0
v -17 -35 0
v -16 -36 0
v -16 -35 0
v -15 -36 0
v -15 -35 0
v -14 -36 0
v -14 -35 0
v -13 -36 0
v -13 -35 0
v -14 -32 0
v -15 -32 0
v -15 -31 0
v -14 -31 0
v -13 -32 0
v -13 -31 0
v -7 -32 0
v -8 -32 0
v -8 -31 0
v -7 -31 0
v -6 -32 0
v -6 -31 0
v -14 -30 0
v -15 -30 0
v -15 -29 0
v -14 -29 0
v -13 -30 0
v -13 -29 0
v -7 -30 0
v -8 -30 0
v -8 -29 0
v -7 -29 0
v -6 -30 0
v -6 -29 0
v -14 -28 0
v -15 -28 0
v -15 -27 0
v -14 -27 0
v -13 -28 0
v -13 -27 0
v -7 -28 0
v -8 -28 0
v -8 -27 0
v -7 -27 0
v -6 -28 0
v -6 -27 0
v -59 -26 0
v -60 -26 0
v -60 -25 0
v -59 -25 0
v -58 -26 0
v -58 -25 0
v -57 -26 0
v -57 -25 0
v -56 -26 0
v -56 -25 0
v -52 -26 0
v -53 -26 0
v -53 -25 0
v -52 -25 0
v -51 -26 0
v -51 -25 0
v -50 -26 0
v -50 -25 0
v -14 -26 0
v -15 -26 0
v -15 -25 0
v -14 -25 0
v -13 -26 0
v -13 -25 0
v -7 -26 0
v -8 -26 0
v -8 -25 0
v -7 -25 0
v -6 -26 0
v -6 -25 0
v -60 -24 0
v -59 -24 0
v -60 -23 0
v -59 -23 0
v -60 -22 0
v -59 -22 0
v -60 -21 0
v -59 -21 0
v -60 -20 0
v -59 -20 0
v -117 -20 0
v -118 -20 0
v -118 -19 0
v -117 -19 0
v -116 -20 0
v -116 -19 0
v -115 -20 0
v -115 -19 0
v -114 -20 0
v -114 -19 0
v -113 -20 0
v -113 -19 0
v -112 -20 0
v -112 -19 0
v -111 -20 0
v -111 -19 0
v -110 -20 0
v -110 -19 0
v -109 -20 0
v -109 -19 0
v -108 -20 0
v -108 -19 0
v -107 -20 0
v -107 -19 0
v -106 -20 0
v -106 -19 0
v -105 -20 0
v -105 -19 0
v -104 -20 0
v -104 -19 0
v -103 -20 0
v -103 -19 0
v -60 -19 0
v -59 -19 0
v -8 -20 0
v -9 -20 0
v -9 -19 0
v -8 -19 0
v -7 -20 0
v -7 -19 0
v -6 -20 0
v -6 -19 0
v -5 -20 0
v -5 -19 0
v -118 -18 0
v -117 -18 0
v -60 -18 0
v -59 -18 0
v -118 -17 0
v -117 -17 0
v -60 -17 0
v -59 -17 0
v -72 -17 0
v -73 -17 0
v -73 -16 0
v -72 -16 0
v -71 -17 0
v -71 -16 0
v -70 -17 0
v -70 -16 0
v -69 -17 0
v -69 -16 0
v -68 -17 0
v -68 -16 0
v -67 -17 0
v -67 -16 0
v -66 -17 0
v -66 -16 0
v -65 -17 0
v -65 -16 0
v -60 -16 0
v -59 -16 0
v -73 -15 0
v -72 -15 0
v -66 -15 0
v -65 -15 0
v -60 -15 0
v -59 -15 0
v -73 -14 0
v -72 -14 0
v -66 -14 0
v -65 -14 0
v -60 -14 0
v -59 -14 0
v -87 -14 0
v -88 -14 0
v -88 -13 0
v -87 -13 0
v -86 -14 0
v -86 -13 0
v -85 -14 0
v -85 -13 0
v -84 -14 0
v -84 -13 0
v -83 -14 0
v -83 -13 0
v -82 -14 0
v -82 -13 0
v -81 -14 0
v -81 -13 0
v -80 -14 0
v -80 -13 0
v -79 -14 0
v -79 -13 0
v -78 -14 0
v -78 -13 0
v -77 -14 0
v -77 -13 0
v -76 -14 0
v -76 -13 0
v -75 -14 0
v -75 -13 0
v -74 -14 0
v -74 -13 0
v -73 -13 0
v -72 -13 0
v -66 -13 0
v -65 -13 0
v -64 -14 0
v -64 -13 0
v -63 -14 0
v -63 -13 0
v -62 -14 0
v -62 -13 0
v -61 -14 0
v -61 -13 0
v -60 -13 0
v -59 -13 0
v -88 -12 0
v -87 -12 0
v -88 -11 0
v -87 -11 0
v -88 -10 0
v -87 -10 0
v -88 -9 0
v -87 -9 0
v -88 -8 0
v -87 -8 0
v -82 -9 0
v -83 -9 0
v -83 -8 0
v -82 -8 0
v -81 -9 0
v -81 -8 0
v -80 -9 0
v -80 -8 0
v -79 -9 0
v -79 -8 0
v -78 -9 0
v -78 -8 0
v -77 -9 0
v -77 -8 0
v -76 -9 0
v -76 -8 0
v -75 -9 0
v -75 -8 0
v -74 -9 0
v -74 -8 0
v -73 -9 0
v -73 -8 0
v -72 -9 0
v -72 -8 0
v -71 -9 0
v -71 -8 0
v -70 -9 0
v -70 -8 0
v -69 -9 0
v -69 -8 0
v -68 -9 0
v -68 -8 0
v -67 -9 0
v -67 -8 0
v -66 -9 0
v -66 -8 0
v -65 -9 0
v -65 -8 0
v -64 -9 0
v -64 -8 0
v -106 -8 0
v -107 -8 0
v -107 -7 0
v -106 -7 0
v -105 -8 0
v -105 -7 0
v -104 -8 0
v -104 -7 0
v -103 -8 0
v -103 -7 0
v -93 -8 0
v -94 -8 0
v -94 -7 0
v -93 -7 0
v -92 -8 0
v -92 -7 0
v -91 -8 0
v -91 -7 0
v -90 -8 0
v -90 -7 0
v -89 -8 0
v -89 -7 0
v -88 -7 0
v -87 -7 0

# Texture cooridinates (Count = 4)
vt 1.525879E-05 0.6250153
vt 0.1249847 0.6250153
vt 0.1249847 0.7499847
vt 1.525879E-05 0.7499847

# Normal
vn 0 0 -1

# Groups (Count = 1)

g mesh_0001
f 1/1/1 2/2/1 3/3/1 4/4/1
f 5/1/1 1/2/1 4/3/1 6/4/1
f 7/1/1 5/2/1 6/3/1 8/4/1
f 9/1/1 10/2/1 11/3/1 12/4/1
f 13/1/1 9/2/1 12/3/1 14/4/1
f 15/1/1 16/2/1 17/3/1 18/4/1
f 19/1/1 15/2/1 18/3/1 20/4/1
f 21/1/1 22/2/1 23/3/1 24/4/1
f 25/1/1 21/2/1 24/3/1 26/4/1
f 27/1/1 25/2/1 26/3/1 28/4/1
f 29/1/1 27/2/1 28/3/1 30/4/1
f 31/1/1 29/2/1 30/3/1 32/4/1
f 33/1/1 31/2/1 32/3/1 34/4/1
f 35/1/1 33/2/1 34/3/1 36/4/1
f 37/1/1 38/2/1 39/3/1 40/4/1
f 41/1/1 37/2/1 40/3/1 42/4/1
f 43/1/1 44/2/1 45/3/1 46/4/1
f 47/1/1 43/2/1 46/3/1 48/4/1
f 49/1/1 50/2/1 51/3/1 52/4/1
f 53/1/1 49/2/1 52/3/1 54/4/1
f 55/1/1 56/2/1 57/3/1 58/4/1
f 59/1/1 55/2/1 58/3/1 60/4/1
f 61/1/1 62/2/1 63/3/1 64/4/1
f 65/1/1 61/2/1 64/3/1 66/4/1
f 67/1/1 68/2/1 69/3/1 70/4/1
f 71/1/1 67/2/1 70/3/1 72/4/1
f 73/1/1 74/2/1 75/3/1 76/4/1
f 77/1/1 73/2/1 76/3/1 78/4/1
f 79/1/1 77/2/1 78/3/1 80/4/1
f 81/1/1 79/2/1 80/3/1 82/4/1
f 83/1/1 84/2/1 85/3/1 86/4/1
f 87/1/1 83/2/1 86/3/1 88/4/1
f 89/1/1 87/2/1 88/3/1 90/4/1
f 91/1/1 92/2/1 93/3/1 94/4/1
f 95/1/1 91/2/1 94/3/1 96/4/1
f 97/1/1 98/2/1 99/3/1 100/4/1
f 101/1/1 97/2/1 100/3/1 102/4/1
f 76/1/1 75/2/1 103/3/1 104/4/1
f 104/1/1 103/2/1 105/3/1 106/4/1
f 106/1/1 105/2/1 107/3/1 108/4/1
f 108/1/1 107/2/1 109/3/1 110/4/1
f 110/1/1 109/2/1 111/3/1 112/4/1
f 113/1/1 114/2/1 115/3/1 116/4/1
f 117/1/1 113/2/1 116/3/1 118/4/1
f 119/1/1 117/2/1 118/3/1 120/4/1
f 121/1/1 119/2/1 120/3/1 122/4/1
f 123/1/1 121/2/1 122/3/1 124/4/1
f 125/1/1 123/2/1 124/3/1 126/4/1
f 127/1/1 125/2/1 126/3/1 128/4/1
f 129/1/1 127/2/1 128/3/1 130/4/1
f 131/1/1 129/2/1 130/3/1 132/4/1
f 133/1/1 131/2/1 132/3/1 134/4/1
f 135/1/1 133/2/1 134/3/1 136/4/1
f 137/1/1 135/2/1 136/3/1 138/4/1
f 139/1/1 137/2/1 138/3/1 140/4/1
f 141/1/1 139/2/1 140/3/1 142/4/1
f 143/1/1 141/2/1 142/3/1 144/4/1
f 112/1/1 111/2/1 145/3/1 146/4/1
f 147/1/1 148/2/1 149/3/1 150/4/1
f 151/1/1 147/2/1 150/3/1 152/4/1
f 153/1/1 151/2/1 152/3/1 154/4/1
f 155/1/1 153/2/1 154/3/1 156/4/1
f 116/1/1 115/2/1 157/3/1 158/4/1
f 146/1/1 145/2/1 159/3/1 160/4/1
f 158/1/1 157/2/1 161/3/1 162/4/1
f 160/1/1 159/2/1 163/3/1 164/4/1
f 165/1/1 166/2/1 167/3/1 168/4/1
f 169/1/1 165/2/1 168/3/1 170/4/1
f 171/1/1 169/2/1 170/3/1 172/4/1
f 173/1/1 171/2/1 172/3/1 174/4/1
f 175/1/1 173/2/1 174/3/1 176/4/1
f 177/1/1 175/2/1 176/3/1 178/4/1
f 179/1/1 177/2/1 178/3/1 180/4/1
f 181/1/1 179/2/1 180/3/1 182/4/1
f 164/1/1 163/2/1 183/3/1 184/4/1
f 168/1/1 167/2/1 185/3/1 186/4/1
f 182/1/1 180/2/1 187/3/1 188/4/1
f 184/1/1 183/2/1 189/3/1 190/4/1
f 186/1/1 185/2/1 191/3/1 192/4/1
f 188/1/1 187/2/1 193/3/1 194/4/1
f 190/1/1 189/2/1 195/3/1 196/4/1
f 197/1/1 198/2/1 199/3/1 200/4/1
f 201/1/1 197/2/1 200/3/1 202/4/1
f 203/1/1 201/2/1 202/3/1 204/4/1
f 205/1/1 203/2/1 204/3/1 206/4/1
f 207/1/1 205/2/1 206/3/1 208/4/1
f 209/1/1 207/2/1 208/3/1 210/4/1
f 211/1/1 209/2/1 210/3/1 212/4/1
f 213/1/1 211/2/1 212/3/1 214/4/1
f 215/1/1 213/2/1 214/3/1 216/4/1
f 217/1/1 215/2/1 216/3/1 218/4/1
f 219/1/1 217/2/1 218/3/1 220/4/1
f 221/1/1 219/2/1 220/3/1 222/4/1
f 223/1/1 221/2/1 222/3/1 224/4/1
f 225/1/1 223/2/1 224/3/1 226/4/1
f 191/1/1 225/2/1 226/3/1 227/4/1
f 192/1/1 191/2/1 227/3/1 228/4/1
f 194/1/1 193/2/1 229/3/1 230/4/1
f 231/1/1 194/2/1 230/3/1 232/4/1
f 233/1/1 231/2/1 232/3/1 234/4/1
f 235/1/1 233/2/1 234/3/1 236/4/1
f 237/1/1 235/2/1 236/3/1 238/4/1
f 195/1/1 237/2/1 238/3/1 239/4/1
f 196/1/1 195/2/1 239/3/1 240/4/1
f 200/1/1 199/2/1 241/3/1 242/4/1
f 242/1/1 241/2/1 243/3/1 244/4/1
f 244/1/1 243/2/1 245/3/1 246/4/1
f 246/1/1 245/2/1 247/3/1 248/4/1
f 248/1/1 247/2/1 249/3/1 250/4/1
f 251/1/1 252/2/1 253/3/1 254/4/1
f 255/1/1 251/2/1 254/3/1 256/4/1
f 257/1/1 255/2/1 256/3/1 258/4/1
f 259/1/1 257/2/1 258/3/1 260/4/1
f 261/1/1 259/2/1 260/3/1 262/4/1
f 263/1/1 261/2/1 262/3/1 264/4/1
f 265/1/1 263/2/1 264/3/1 266/4/1
f 267/1/1 265/2/1 266/3/1 268/4/1
f 269/1/1 267/2/1 268/3/1 270/4/1
f 271/1/1 269/2/1 270/3/1 272/4/1
f 273/1/1 271/2/1 272/3/1 274/4/1
f 275/1/1 273/2/1 274/3/1 276/4/1
f 277/1/1 275/2/1 276/3/1 278/4/1
f 279/1/1 277/2/1 278/3/1 280/4/1
f 281/1/1 279/2/1 280/3/1 282/4/1
f 283/1/1 281/2/1 282/3/1 284/4/1
f 285/1/1 283/2/1 284/3/1 286/4/1
f 287/1/1 285/2/1 286/3/1 288/4/1
f 289/1/1 287/2/1 288/3/1 290/4/1
f 291/1/1 292/2/1 293/3/1 294/4/1
f 295/1/1 291/2/1 294/3/1 296/4/1
f 297/1/1 295/2/1 296/3/1 298/4/1
f 299/1/1 297/2/1 298/3/1 300/4/1
f 301/1/1 302/2/1 303/3/1 304/4/1
f 305/1/1 301/2/1 304/3/1 306/4/1
f 307/1/1 305/2/1 306/3/1 308/4/1
f 309/1/1 307/2/1 308/3/1 310/4/1
f 311/1/1 309/2/1 310/3/1 312/4/1
f 249/1/1 311/2/1 312/3/1 313/4/1
f 250/1/1 249/2/1 313/3/1 314/4/1

