# Wavefront OBJ file automatically generated by Tiled2Unity

# Vertices (Count = 768)
v -217 -59 0
v -218 -59 0
v -218 -58 0
v -217 -58 0
v -216 -59 0
v -216 -58 0
v -215 -59 0
v -215 -58 0
v -214 -59 0
v -214 -58 0
v -213 -59 0
v -213 -58 0
v -212 -59 0
v -212 -58 0
v -211 -59 0
v -211 -58 0
v -210 -59 0
v -210 -58 0
v -209 -59 0
v -209 -58 0
v -208 -59 0
v -208 -58 0
v -191 -59 0
v -192 -59 0
v -192 -58 0
v -191 -58 0
v -190 -59 0
v -190 -58 0
v -189 -59 0
v -189 -58 0
v -188 -59 0
v -188 -58 0
v -187 -59 0
v -187 -58 0
v -186 -59 0
v -186 -58 0
v -180 -59 0
v -181 -59 0
v -181 -58 0
v -180 -58 0
v -179 -59 0
v -179 -58 0
v -178 -59 0
v -178 -58 0
v -177 -59 0
v -177 -58 0
v -176 -59 0
v -176 -58 0
v -175 -59 0
v -175 -58 0
v -174 -59 0
v -174 -58 0
v -173 -59 0
v -173 -58 0
v -172 -59 0
v -172 -58 0
v -171 -59 0
v -171 -58 0
v -170 -59 0
v -170 -58 0
v -169 -59 0
v -169 -58 0
v -168 -59 0
v -168 -58 0
v -167 -59 0
v -167 -58 0
v -166 -59 0
v -166 -58 0
v -165 -59 0
v -165 -58 0
v -164 -59 0
v -164 -58 0
v -163 -59 0
v -163 -58 0
v -162 -59 0
v -162 -58 0
v -161 -59 0
v -161 -58 0
v -160 -59 0
v -160 -58 0
v -159 -59 0
v -159 -58 0
v -158 -59 0
v -158 -58 0
v -157 -59 0
v -157 -58 0
v -156 -59 0
v -156 -58 0
v -155 -59 0
v -155 -58 0
v -154 -59 0
v -154 -58 0
v -153 -59 0
v -153 -58 0
v -152 -59 0
v -152 -58 0
v -151 -59 0
v -151 -58 0
v -218 -57 0
v -217 -57 0
v -177 -57 0
v -176 -57 0
v -175 -57 0
v -174 -57 0
v -173 -57 0
v -169 -57 0
v -168 -57 0
v -167 -57 0
v -166 -57 0
v -165 -57 0
v -161 -57 0
v -160 -57 0
v -159 -57 0
v -158 -57 0
v -157 -57 0
v -152 -57 0
v -151 -57 0
v -218 -56 0
v -217 -56 0
v -152 -56 0
v -151 -56 0
v -218 -55 0
v -217 -55 0
v -216 -56 0
v -216 -55 0
v -152 -55 0
v -151 -55 0
v -152 -54 0
v -151 -54 0
v -152 -53 0
v -151 -53 0
v -152 -52 0
v -151 -52 0
v -156 -52 0
v -157 -52 0
v -157 -51 0
v -156 -51 0
v -152 -51 0
v -151 -51 0
v -150 -52 0
v -150 -51 0
v -149 -52 0
v -149 -51 0
v -148 -52 0
v -148 -51 0
v -147 -52 0
v -147 -51 0
v -146 -52 0
v -146 -51 0
v -145 -52 0
v -145 -51 0
v -144 -52 0
v -144 -51 0
v -143 -52 0
v -143 -51 0
v -142 -52 0
v -142 -51 0
v -141 -52 0
v -141 -51 0
v -140 -52 0
v -140 -51 0
v -139 -52 0
v -139 -51 0
v -138 -52 0
v -138 -51 0
v -137 -52 0
v -137 -51 0
v -157 -50 0
v -156 -50 0
v -152 -50 0
v -151 -50 0
v -150 -50 0
v -149 -50 0
v -148 -50 0
v -147 -50 0
v -138 -50 0
v -137 -50 0
v -157 -49 0
v -156 -49 0
v -152 -49 0
v -151 -49 0
v -150 -49 0
v -149 -49 0
v -138 -49 0
v -137 -49 0
v -157 -48 0
v -156 -48 0
v -152 -48 0
v -151 -48 0
v -138 -48 0
v -137 -48 0
v -157 -47 0
v -156 -47 0
v -138 -47 0
v -137 -47 0
v -157 -46 0
v -156 -46 0
v -138 -46 0
v -137 -46 0
v -157 -45 0
v -156 -45 0
v -138 -45 0
v -137 -45 0
v -127 -46 0
v -128 -46 0
v -128 -45 0
v -127 -45 0
v -126 -46 0
v -126 -45 0
v -125 -46 0
v -125 -45 0
v -124 -46 0
v -124 -45 0
v -123 -46 0
v -123 -45 0
v -122 -46 0
v -122 -45 0
v -121 -46 0
v -121 -45 0
v -157 -44 0
v -156 -44 0
v -138 -44 0
v -137 -44 0
v -129 -45 0
v -129 -44 0
v -128 -44 0
v -127 -44 0
v -122 -44 0
v -121 -44 0
v -120 -45 0
v -120 -44 0
v -157 -43 0
v -156 -43 0
v -138 -43 0
v -137 -43 0
v -129 -43 0
v -128 -43 0
v -121 -43 0
v -120 -43 0
v -101 -44 0
v -102 -44 0
v -102 -43 0
v -101 -43 0
v -100 -44 0
v -100 -43 0
v -99 -44 0
v -99 -43 0
v -98 -44 0
v -98 -43 0
v -97 -44 0
v -97 -43 0
v -96 -44 0
v -96 -43 0
v -157 -42 0
v -156 -42 0
v -138 -42 0
v -137 -42 0
v -129 -42 0
v -128 -42 0
v -121 -42 0
v -120 -42 0
v -102 -42 0
v -101 -42 0
v -97 -42 0
v -96 -42 0
v -157 -41 0
v -156 -41 0
v -138 -41 0
v -137 -41 0
v -129 -41 0
v -128 -41 0
v -121 -41 0
v -120 -41 0
v -102 -41 0
v -101 -41 0
v -97 -41 0
v -96 -41 0
v -62 -42 0
v -63 -42 0
v -63 -41 0
v -62 -41 0
v -61 -42 0
v -61 -41 0
v -60 -42 0
v -60 -41 0
v -43 -42 0
v -44 -42 0
v -44 -41 0
v -43 -41 0
v -42 -42 0
v -42 -41 0
v -41 -42 0
v -41 -41 0
v -40 -42 0
v -40 -41 0
v -17 -42 0
v -18 -42 0
v -18 -41 0
v -17 -41 0
v -16 -42 0
v -16 -41 0
v -15 -42 0
v -15 -41 0
v -14 -42 0
v -14 -41 0
v -13 -42 0
v -13 -41 0
v -157 -40 0
v -156 -40 0
v -138 -40 0
v -137 -40 0
v -129 -40 0
v -128 -40 0
v -121 -40 0
v -120 -40 0
v -102 -40 0
v -101 -40 0
v -97 -40 0
v -96 -40 0
v -14 -40 0
v -13 -40 0
v -157 -39 0
v -156 -39 0
v -138 -39 0
v -137 -39 0
v -102 -39 0
v -101 -39 0
v -97 -39 0
v -96 -39 0
v -14 -39 0
v -13 -39 0
v -209 -39 0
v -210 -39 0
v -210 -38 0
v -209 -38 0
v -208 -39 0
v -208 -38 0
v -207 -39 0
v -207 -38 0
v -206 -39 0
v -206 -38 0
v -205 -39 0
v -205 -38 0
v -204 -39 0
v -204 -38 0
v -203 -39 0
v -203 -38 0
v -202 -39 0
v -202 -38 0
v -201 -39 0
v -201 -38 0
v -157 -38 0
v -156 -38 0
v -138 -38 0
v -137 -38 0
v -102 -38 0
v -101 -38 0
v -97 -38 0
v -96 -38 0
v -14 -38 0
v -13 -38 0
v -210 -37 0
v -209 -37 0
v -202 -37 0
v -201 -37 0
v -157 -37 0
v -156 -37 0
v -138 -37 0
v -137 -37 0
v -136 -38 0
v -136 -37 0
v -135 -38 0
v -135 -37 0
v -134 -38 0
v -134 -37 0
v -133 -38 0
v -133 -37 0
v -102 -37 0
v -101 -37 0
v -97 -37 0
v -96 -37 0
v -95 -38 0
v -95 -37 0
v -94 -38 0
v -94 -37 0
v -93 -38 0
v -93 -37 0
v -92 -38 0
v -92 -37 0
v -91 -38 0
v -91 -37 0
v -90 -38 0
v -90 -37 0
v -89 -38 0
v -89 -37 0
v -88 -38 0
v -88 -37 0
v -87 -38 0
v -87 -37 0
v -86 -38 0
v -86 -37 0
v -85 -38 0
v -85 -37 0
v -84 -38 0
v -84 -37 0
v -83 -38 0
v -83 -37 0
v -82 -38 0
v -82 -37 0
v -81 -38 0
v -81 -37 0
v -80 -38 0
v -80 -37 0
v -79 -38 0
v -79 -37 0
v -78 -38 0
v -78 -37 0
v -77 -38 0
v -77 -37 0
v -76 -38 0
v -76 -37 0
v -75 -38 0
v -75 -37 0
v -74 -38 0
v -74 -37 0
v -73 -38 0
v -73 -37 0
v -72 -38 0
v -72 -37 0
v -71 -38 0
v -71 -37 0
v -70 -38 0
v -70 -37 0
v -69 -38 0
v -69 -37 0
v -68 -38 0
v -68 -37 0
v -67 -38 0
v -67 -37 0
v -14 -37 0
v -13 -37 0
v -210 -36 0
v -209 -36 0
v -202 -36 0
v -201 -36 0
v -157 -36 0
v -156 -36 0
v -102 -36 0
v -101 -36 0
v -14 -36 0
v -13 -36 0
v -210 -35 0
v -209 -35 0
v -202 -35 0
v -201 -35 0
v -157 -35 0
v -156 -35 0
v -102 -35 0
v -101 -35 0
v -14 -35 0
v -13 -35 0
v -210 -34 0
v -209 -34 0
v -202 -34 0
v -201 -34 0
v -157 -34 0
v -156 -34 0
v -102 -34 0
v -101 -34 0
v -14 -34 0
v -13 -34 0
v -210 -33 0
v -209 -33 0
v -202 -33 0
v -201 -33 0
v -163 -34 0
v -164 -34 0
v -164 -33 0
v -163 -33 0
v -162 -34 0
v -162 -33 0
v -161 -34 0
v -161 -33 0
v -160 -34 0
v -160 -33 0
v -159 -34 0
v -159 -33 0
v -158 -34 0
v -158 -33 0
v -157 -33 0
v -156 -33 0
v -102 -33 0
v -101 -33 0
v -62 -34 0
v -63 -34 0
v -63 -33 0
v -62 -33 0
v -61 -34 0
v -61 -33 0
v -60 -34 0
v -60 -33 0
v -14 -33 0
v -13 -33 0
v -12 -34 0
v -12 -33 0
v -11 -34 0
v -11 -33 0
v -10 -34 0
v -10 -33 0
v -210 -32 0
v -209 -32 0
v -202 -32 0
v -201 -32 0
v -102 -32 0
v -101 -32 0
v -210 -31 0
v -209 -31 0
v -202 -31 0
v -201 -31 0
v -102 -31 0
v -101 -31 0
v -96 -32 0
v -97 -32 0
v -97 -31 0
v -96 -31 0
v -214 -31 0
v -215 -31 0
v -215 -30 0
v -214 -30 0
v -213 -31 0
v -213 -30 0
v -212 -31 0
v -212 -30 0
v -211 -31 0
v -211 -30 0
v -210 -30 0
v -209 -30 0
v -202 -30 0
v -201 -30 0
v -200 -31 0
v -200 -30 0
v -199 -31 0
v -199 -30 0
v -198 -31 0
v -198 -30 0
v -197 -31 0
v -197 -30 0
v -196 -31 0
v -196 -30 0
v -195 -31 0
v -195 -30 0
v -194 -31 0
v -194 -30 0
v -102 -30 0
v -101 -30 0
v -97 -30 0
v -96 -30 0
v -215 -29 0
v -214 -29 0
v -213 -29 0
v -212 -29 0
v -211 -29 0
v -210 -29 0
v -195 -29 0
v -194 -29 0
v -102 -29 0
v -101 -29 0
v -97 -29 0
v -96 -29 0
v -223 -29 0
v -224 -29 0
v -224 -28 0
v -223 -28 0
v -222 -29 0
v -222 -28 0
v -221 -29 0
v -221 -28 0
v -220 -29 0
v -220 -28 0
v -219 -29 0
v -219 -28 0
v -218 -29 0
v -218 -28 0
v -217 -29 0
v -217 -28 0
v -216 -29 0
v -216 -28 0
v -215 -28 0
v -214 -28 0
v -213 -28 0
v -195 -28 0
v -194 -28 0
v -102 -28 0
v -101 -28 0
v -97 -28 0
v -96 -28 0
v -95 -29 0
v -95 -28 0
v -94 -29 0
v -94 -28 0
v -93 -29 0
v -93 -28 0
v -92 -29 0
v -92 -28 0
v -91 -29 0
v -91 -28 0
v -90 -29 0
v -90 -28 0
v -89 -29 0
v -89 -28 0
v -88 -29 0
v -88 -28 0
v -87 -29 0
v -87 -28 0
v -86 -29 0
v -86 -28 0
v -85 -29 0
v -85 -28 0
v -84 -29 0
v -84 -28 0
v -83 -29 0
v -83 -28 0
v -82 -29 0
v -82 -28 0
v -81 -29 0
v -81 -28 0
v -80 -29 0
v -80 -28 0
v -79 -29 0
v -79 -28 0
v -78 -29 0
v -78 -28 0
v -77 -29 0
v -77 -28 0
v -76 -29 0
v -76 -28 0
v -75 -29 0
v -75 -28 0
v -74 -29 0
v -74 -28 0
v -73 -29 0
v -73 -28 0
v -72 -29 0
v -72 -28 0
v -71 -29 0
v -71 -28 0
v -70 -29 0
v -70 -28 0
v -69 -29 0
v -69 -28 0
v -68 -29 0
v -68 -28 0
v -67 -29 0
v -67 -28 0
v -22 -29 0
v -23 -29 0
v -23 -28 0
v -22 -28 0
v -21 -29 0
v -21 -28 0
v -20 -29 0
v -20 -28 0
v -19 -29 0
v -19 -28 0
v -18 -29 0
v -18 -28 0
v -224 -27 0
v -223 -27 0
v -195 -27 0
v -194 -27 0
v -103 -28 0
v -104 -28 0
v -104 -27 0
v -103 -27 0
v -102 -27 0
v -101 -27 0
v -97 -27 0
v -96 -27 0
v -224 -26 0
v -223 -26 0
v -195 -26 0
v -194 -26 0
v -97 -26 0
v -96 -26 0
v -224 -25 0
v -223 -25 0
v -222 -26 0
v -222 -25 0
v -221 -26 0
v -221 -25 0
v -220 -26 0
v -220 -25 0
v -219 -26 0
v -219 -25 0
v -218 -26 0
v -218 -25 0
v -217 -26 0
v -217 -25 0
v -195 -25 0
v -194 -25 0
v -195 -24 0
v -194 -24 0
v -195 -23 0
v -194 -23 0
v -195 -22 0
v -194 -22 0
v -189 -23 0
v -190 -23 0
v -190 -22 0
v -189 -22 0
v -188 -23 0
v -188 -22 0
v -187 -23 0
v -187 -22 0
v -186 -23 0
v -186 -22 0
v -185 -23 0
v -185 -22 0
v -184 -23 0
v -184 -22 0
v -183 -23 0
v -183 -22 0
v -182 -23 0
v -182 -22 0
v -181 -23 0
v -181 -22 0
v -180 -23 0
v -180 -22 0
v -179 -23 0
v -179 -22 0
v -195 -21 0
v -194 -21 0
v -190 -21 0
v -189 -21 0
v -195 -20 0
v -194 -20 0
v -190 -20 0
v -189 -20 0
v -195 -19 0
v -194 -19 0
v -190 -19 0
v -189 -19 0
v -195 -18 0
v -194 -18 0
v -190 -18 0
v -189 -18 0
v -195 -17 0
v -194 -17 0
v -190 -17 0
v -189 -17 0
v -195 -16 0
v -194 -16 0
v -190 -16 0
v -189 -16 0
v -195 -15 0
v -194 -15 0
v -190 -15 0
v -189 -15 0
v -195 -14 0
v -194 -14 0
v -193 -15 0
v -193 -14 0
v -192 -15 0
v -192 -14 0
v -191 -15 0
v -191 -14 0
v -190 -14 0
v -189 -14 0

# Texture cooridinates (Count = 4)
vt 0.1249847 0.6250153
vt 1.525879E-05 0.6250153
vt 1.525879E-05 0.7499847
vt 0.1249847 0.7499847

# Normal
vn 0 0 -1

# Groups (Count = 1)

g mesh_0001
f 1/1/1 2/2/1 3/3/1 4/4/1
f 5/1/1 1/2/1 4/3/1 6/4/1
f 7/1/1 5/2/1 6/3/1 8/4/1
f 9/1/1 7/2/1 8/3/1 10/4/1
f 11/1/1 9/2/1 10/3/1 12/4/1
f 13/1/1 11/2/1 12/3/1 14/4/1
f 15/1/1 13/2/1 14/3/1 16/4/1
f 17/1/1 15/2/1 16/3/1 18/4/1
f 19/1/1 17/2/1 18/3/1 20/4/1
f 21/1/1 19/2/1 20/3/1 22/4/1
f 23/1/1 24/2/1 25/3/1 26/4/1
f 27/1/1 23/2/1 26/3/1 28/4/1
f 29/1/1 27/2/1 28/3/1 30/4/1
f 31/1/1 29/2/1 30/3/1 32/4/1
f 33/1/1 31/2/1 32/3/1 34/4/1
f 35/1/1 33/2/1 34/3/1 36/4/1
f 37/1/1 38/2/1 39/3/1 40/4/1
f 41/1/1 37/2/1 40/3/1 42/4/1
f 43/1/1 41/2/1 42/3/1 44/4/1
f 45/1/1 43/2/1 44/3/1 46/4/1
f 47/1/1 45/2/1 46/3/1 48/4/1
f 49/1/1 47/2/1 48/3/1 50/4/1
f 51/1/1 49/2/1 50/3/1 52/4/1
f 53/1/1 51/2/1 52/3/1 54/4/1
f 55/1/1 53/2/1 54/3/1 56/4/1
f 57/1/1 55/2/1 56/3/1 58/4/1
f 59/1/1 57/2/1 58/3/1 60/4/1
f 61/1/1 59/2/1 60/3/1 62/4/1
f 63/1/1 61/2/1 62/3/1 64/4/1
f 65/1/1 63/2/1 64/3/1 66/4/1
f 67/1/1 65/2/1 66/3/1 68/4/1
f 69/1/1 67/2/1 68/3/1 70/4/1
f 71/1/1 69/2/1 70/3/1 72/4/1
f 73/1/1 71/2/1 72/3/1 74/4/1
f 75/1/1 73/2/1 74/3/1 76/4/1
f 77/1/1 75/2/1 76/3/1 78/4/1
f 79/1/1 77/2/1 78/3/1 80/4/1
f 81/1/1 79/2/1 80/3/1 82/4/1
f 83/1/1 81/2/1 82/3/1 84/4/1
f 85/1/1 83/2/1 84/3/1 86/4/1
f 87/1/1 85/2/1 86/3/1 88/4/1
f 89/1/1 87/2/1 88/3/1 90/4/1
f 91/1/1 89/2/1 90/3/1 92/4/1
f 93/1/1 91/2/1 92/3/1 94/4/1
f 95/1/1 93/2/1 94/3/1 96/4/1
f 97/1/1 95/2/1 96/3/1 98/4/1
f 4/1/1 3/2/1 99/3/1 100/4/1
f 48/1/1 46/2/1 101/3/1 102/4/1
f 50/1/1 48/2/1 102/3/1 103/4/1
f 52/1/1 50/2/1 103/3/1 104/4/1
f 54/1/1 52/2/1 104/3/1 105/4/1
f 64/1/1 62/2/1 106/3/1 107/4/1
f 66/1/1 64/2/1 107/3/1 108/4/1
f 68/1/1 66/2/1 108/3/1 109/4/1
f 70/1/1 68/2/1 109/3/1 110/4/1
f 80/1/1 78/2/1 111/3/1 112/4/1
f 82/1/1 80/2/1 112/3/1 113/4/1
f 84/1/1 82/2/1 113/3/1 114/4/1
f 86/1/1 84/2/1 114/3/1 115/4/1
f 98/1/1 96/2/1 116/3/1 117/4/1
f 100/1/1 99/2/1 118/3/1 119/4/1
f 117/1/1 116/2/1 120/3/1 121/4/1
f 119/1/1 118/2/1 122/3/1 123/4/1
f 124/1/1 119/2/1 123/3/1 125/4/1
f 121/1/1 120/2/1 126/3/1 127/4/1
f 127/1/1 126/2/1 128/3/1 129/4/1
f 129/1/1 128/2/1 130/3/1 131/4/1
f 131/1/1 130/2/1 132/3/1 133/4/1
f 134/1/1 135/2/1 136/3/1 137/4/1
f 133/2/1 132/1/1 138/4/1 139/3/1
f 140/2/1 133/1/1 139/4/1 141/3/1
f 142/2/1 140/1/1 141/4/1 143/3/1
f 144/2/1 142/1/1 143/4/1 145/3/1
f 146/2/1 144/1/1 145/4/1 147/3/1
f 148/2/1 146/1/1 147/4/1 149/3/1
f 150/2/1 148/1/1 149/4/1 151/3/1
f 152/2/1 150/1/1 151/4/1 153/3/1
f 154/2/1 152/1/1 153/4/1 155/3/1
f 156/2/1 154/1/1 155/4/1 157/3/1
f 158/2/1 156/1/1 157/4/1 159/3/1
f 160/2/1 158/1/1 159/4/1 161/3/1
f 162/2/1 160/1/1 161/4/1 163/3/1
f 164/2/1 162/1/1 163/4/1 165/3/1
f 166/2/1 164/1/1 165/4/1 167/3/1
f 137/1/1 136/2/1 168/3/1 169/4/1
f 139/2/1 138/1/1 170/4/1 171/3/1
f 141/2/1 139/1/1 171/4/1 172/3/1
f 143/2/1 141/1/1 172/4/1 173/3/1
f 145/2/1 143/1/1 173/4/1 174/3/1
f 147/2/1 145/1/1 174/4/1 175/3/1
f 167/2/1 165/1/1 176/4/1 177/3/1
f 169/1/1 168/2/1 178/3/1 179/4/1
f 171/2/1 170/1/1 180/4/1 181/3/1
f 172/2/1 171/1/1 181/4/1 182/3/1
f 173/2/1 172/1/1 182/4/1 183/3/1
f 177/2/1 176/1/1 184/4/1 185/3/1
f 179/1/1 178/2/1 186/3/1 187/4/1
f 181/2/1 180/1/1 188/4/1 189/3/1
f 185/2/1 184/1/1 190/4/1 191/3/1
f 187/1/1 186/2/1 192/3/1 193/4/1
f 191/2/1 190/1/1 194/4/1 195/3/1
f 193/1/1 192/2/1 196/3/1 197/4/1
f 195/2/1 194/1/1 198/4/1 199/3/1
f 197/1/1 196/2/1 200/3/1 201/4/1
f 199/2/1 198/1/1 202/4/1 203/3/1
f 204/2/1 205/1/1 206/4/1 207/3/1
f 208/2/1 204/1/1 207/4/1 209/3/1
f 210/2/1 208/1/1 209/4/1 211/3/1
f 212/2/1 210/1/1 211/4/1 213/3/1
f 214/2/1 212/1/1 213/4/1 215/3/1
f 216/2/1 214/1/1 215/4/1 217/3/1
f 218/2/1 216/1/1 217/4/1 219/3/1
f 201/1/1 200/2/1 220/3/1 221/4/1
f 203/2/1 202/1/1 222/4/1 223/3/1
f 206/2/1 224/1/1 225/4/1 226/3/1
f 207/2/1 206/1/1 226/4/1 227/3/1
f 219/2/1 217/1/1 228/4/1 229/3/1
f 230/2/1 219/1/1 229/4/1 231/3/1
f 221/1/1 220/2/1 232/3/1 233/4/1
f 223/2/1 222/1/1 234/4/1 235/3/1
f 226/2/1 225/1/1 236/4/1 237/3/1
f 231/2/1 229/1/1 238/4/1 239/3/1
f 240/2/1 241/1/1 242/4/1 243/3/1
f 244/2/1 240/1/1 243/4/1 245/3/1
f 246/2/1 244/1/1 245/4/1 247/3/1
f 248/2/1 246/1/1 247/4/1 249/3/1
f 250/2/1 248/1/1 249/4/1 251/3/1
f 252/2/1 250/1/1 251/4/1 253/3/1
f 233/1/1 232/2/1 254/3/1 255/4/1
f 235/2/1 234/1/1 256/4/1 257/3/1
f 237/2/1 236/1/1 258/4/1 259/3/1
f 239/2/1 238/1/1 260/4/1 261/3/1
f 243/2/1 242/1/1 262/4/1 263/3/1
f 253/2/1 251/1/1 264/4/1 265/3/1
f 255/1/1 254/2/1 266/3/1 267/4/1
f 257/2/1 256/1/1 268/4/1 269/3/1
f 259/2/1 258/1/1 270/4/1 271/3/1
f 261/2/1 260/1/1 272/4/1 273/3/1
f 263/2/1 262/1/1 274/4/1 275/3/1
f 265/2/1 264/1/1 276/4/1 277/3/1
f 278/2/1 279/1/1 280/4/1 281/3/1
f 282/2/1 278/1/1 281/4/1 283/3/1
f 284/2/1 282/1/1 283/4/1 285/3/1
f 286/2/1 287/1/1 288/4/1 289/3/1
f 290/2/1 286/1/1 289/4/1 291/3/1
f 292/2/1 290/1/1 291/4/1 293/3/1
f 294/2/1 292/1/1 293/4/1 295/3/1
f 296/2/1 297/1/1 298/4/1 299/3/1
f 300/2/1 296/1/1 299/4/1 301/3/1
f 302/2/1 300/1/1 301/4/1 303/3/1
f 304/2/1 302/1/1 303/4/1 305/3/1
f 306/2/1 304/1/1 305/4/1 307/3/1
f 267/1/1 266/2/1 308/3/1 309/4/1
f 269/2/1 268/1/1 310/4/1 311/3/1
f 271/2/1 270/1/1 312/4/1 313/3/1
f 273/2/1 272/1/1 314/4/1 315/3/1
f 275/2/1 274/1/1 316/4/1 317/3/1
f 277/2/1 276/1/1 318/4/1 319/3/1
f 307/2/1 305/1/1 320/4/1 321/3/1
f 309/1/1 308/2/1 322/3/1 323/4/1
f 311/2/1 310/1/1 324/4/1 325/3/1
f 317/2/1 316/1/1 326/4/1 327/3/1
f 319/2/1 318/1/1 328/4/1 329/3/1
f 321/2/1 320/1/1 330/4/1 331/3/1
f 332/1/1 333/2/1 334/3/1 335/4/1
f 336/1/1 332/2/1 335/3/1 337/4/1
f 338/1/1 336/2/1 337/3/1 339/4/1
f 340/1/1 338/2/1 339/3/1 341/4/1
f 342/1/1 340/2/1 341/3/1 343/4/1
f 344/1/1 342/2/1 343/3/1 345/4/1
f 346/1/1 344/2/1 345/3/1 347/4/1
f 348/1/1 346/2/1 347/3/1 349/4/1
f 350/1/1 348/2/1 349/3/1 351/4/1
f 323/1/1 322/2/1 352/3/1 353/4/1
f 325/2/1 324/1/1 354/4/1 355/3/1
f 327/2/1 326/1/1 356/4/1 357/3/1
f 329/2/1 328/1/1 358/4/1 359/3/1
f 331/2/1 330/1/1 360/4/1 361/3/1
f 335/1/1 334/2/1 362/3/1 363/4/1
f 351/1/1 349/2/1 364/3/1 365/4/1
f 353/1/1 352/2/1 366/3/1 367/4/1
f 355/2/1 354/1/1 368/4/1 369/3/1
f 370/2/1 355/1/1 369/4/1 371/3/1
f 372/2/1 370/1/1 371/4/1 373/3/1
f 374/2/1 372/1/1 373/4/1 375/3/1
f 376/2/1 374/1/1 375/4/1 377/3/1
f 357/2/1 356/1/1 378/4/1 379/3/1
f 359/2/1 358/1/1 380/4/1 381/3/1
f 382/2/1 359/1/1 381/4/1 383/3/1
f 384/2/1 382/1/1 383/4/1 385/3/1
f 386/2/1 384/1/1 385/4/1 387/3/1
f 388/2/1 386/1/1 387/4/1 389/3/1
f 390/2/1 388/1/1 389/4/1 391/3/1
f 392/2/1 390/1/1 391/4/1 393/3/1
f 394/2/1 392/1/1 393/4/1 395/3/1
f 396/2/1 394/1/1 395/4/1 397/3/1
f 398/2/1 396/1/1 397/4/1 399/3/1
f 400/2/1 398/1/1 399/4/1 401/3/1
f 402/2/1 400/1/1 401/4/1 403/3/1
f 404/2/1 402/1/1 403/4/1 405/3/1
f 406/2/1 404/1/1 405/4/1 407/3/1
f 408/2/1 406/1/1 407/4/1 409/3/1
f 410/2/1 408/1/1 409/4/1 411/3/1
f 412/2/1 410/1/1 411/4/1 413/3/1
f 414/2/1 412/1/1 413/4/1 415/3/1
f 416/2/1 414/1/1 415/4/1 417/3/1
f 418/2/1 416/1/1 417/4/1 419/3/1
f 420/2/1 418/1/1 419/4/1 421/3/1
f 422/2/1 420/1/1 421/4/1 423/3/1
f 424/2/1 422/1/1 423/4/1 425/3/1
f 426/2/1 424/1/1 425/4/1 427/3/1
f 428/2/1 426/1/1 427/4/1 429/3/1
f 430/2/1 428/1/1 429/4/1 431/3/1
f 432/2/1 430/1/1 431/4/1 433/3/1
f 434/2/1 432/1/1 433/4/1 435/3/1
f 436/2/1 434/1/1 435/4/1 437/3/1
f 438/2/1 436/1/1 437/4/1 439/3/1
f 361/2/1 360/1/1 440/4/1 441/3/1
f 363/1/1 362/2/1 442/3/1 443/4/1
f 365/1/1 364/2/1 444/3/1 445/4/1
f 367/1/1 366/2/1 446/3/1 447/4/1
f 379/2/1 378/1/1 448/4/1 449/3/1
f 441/2/1 440/1/1 450/4/1 451/3/1
f 443/1/1 442/2/1 452/3/1 453/4/1
f 445/1/1 444/2/1 454/3/1 455/4/1
f 447/1/1 446/2/1 456/3/1 457/4/1
f 449/2/1 448/1/1 458/4/1 459/3/1
f 451/2/1 450/1/1 460/4/1 461/3/1
f 453/1/1 452/2/1 462/3/1 463/4/1
f 455/1/1 454/2/1 464/3/1 465/4/1
f 457/1/1 456/2/1 466/3/1 467/4/1
f 459/2/1 458/1/1 468/4/1 469/3/1
f 461/2/1 460/1/1 470/4/1 471/3/1
f 463/1/1 462/2/1 472/3/1 473/4/1
f 465/1/1 464/2/1 474/3/1 475/4/1
f 476/1/1 477/2/1 478/3/1 479/4/1
f 480/1/1 476/2/1 479/3/1 481/4/1
f 482/1/1 480/2/1 481/3/1 483/4/1
f 484/1/1 482/2/1 483/3/1 485/4/1
f 486/1/1 484/2/1 485/3/1 487/4/1
f 488/1/1 486/2/1 487/3/1 489/4/1
f 466/1/1 488/2/1 489/3/1 490/4/1
f 467/1/1 466/2/1 490/3/1 491/4/1
f 469/2/1 468/1/1 492/4/1 493/3/1
f 494/2/1 495/1/1 496/4/1 497/3/1
f 498/2/1 494/1/1 497/4/1 499/3/1
f 500/2/1 498/1/1 499/4/1 501/3/1
f 471/2/1 470/1/1 502/4/1 503/3/1
f 504/2/1 471/1/1 503/4/1 505/3/1
f 506/2/1 504/1/1 505/4/1 507/3/1
f 508/2/1 506/1/1 507/4/1 509/3/1
f 473/1/1 472/2/1 510/3/1 511/4/1
f 475/1/1 474/2/1 512/3/1 513/4/1
f 493/2/1 492/1/1 514/4/1 515/3/1
f 511/1/1 510/2/1 516/3/1 517/4/1
f 513/1/1 512/2/1 518/3/1 519/4/1
f 515/2/1 514/1/1 520/4/1 521/3/1
f 522/2/1 523/1/1 524/4/1 525/3/1
f 526/1/1 527/2/1 528/3/1 529/4/1
f 530/1/1 526/2/1 529/3/1 531/4/1
f 532/1/1 530/2/1 531/3/1 533/4/1
f 534/1/1 532/2/1 533/3/1 535/4/1
f 516/1/1 534/2/1 535/3/1 536/4/1
f 517/1/1 516/2/1 536/3/1 537/4/1
f 519/1/1 518/2/1 538/3/1 539/4/1
f 540/1/1 519/2/1 539/3/1 541/4/1
f 542/1/1 540/2/1 541/3/1 543/4/1
f 544/1/1 542/2/1 543/3/1 545/4/1
f 546/1/1 544/2/1 545/3/1 547/4/1
f 548/1/1 546/2/1 547/3/1 549/4/1
f 550/1/1 548/2/1 549/3/1 551/4/1
f 552/1/1 550/2/1 551/3/1 553/4/1
f 521/2/1 520/1/1 554/4/1 555/3/1
f 525/2/1 524/1/1 556/4/1 557/3/1
f 529/1/1 528/2/1 558/3/1 559/4/1
f 531/1/1 529/2/1 559/3/1 560/4/1
f 533/1/1 531/2/1 560/3/1 561/4/1
f 535/1/1 533/2/1 561/3/1 562/4/1
f 536/1/1 535/2/1 562/3/1 563/4/1
f 553/1/1 551/2/1 564/3/1 565/4/1
f 555/2/1 554/1/1 566/4/1 567/3/1
f 557/2/1 556/1/1 568/4/1 569/3/1
f 570/1/1 571/2/1 572/3/1 573/4/1
f 574/1/1 570/2/1 573/3/1 575/4/1
f 576/1/1 574/2/1 575/3/1 577/4/1
f 578/1/1 576/2/1 577/3/1 579/4/1
f 580/1/1 578/2/1 579/3/1 581/4/1
f 582/1/1 580/2/1 581/3/1 583/4/1
f 584/1/1 582/2/1 583/3/1 585/4/1
f 586/1/1 584/2/1 585/3/1 587/4/1
f 558/1/1 586/2/1 587/3/1 588/4/1
f 559/1/1 558/2/1 588/3/1 589/4/1
f 560/1/1 559/2/1 589/3/1 590/4/1
f 565/1/1 564/2/1 591/3/1 592/4/1
f 567/2/1 566/1/1 593/4/1 594/3/1
f 569/2/1 568/1/1 595/4/1 596/3/1
f 597/2/1 569/1/1 596/4/1 598/3/1
f 599/2/1 597/1/1 598/4/1 600/3/1
f 601/2/1 599/1/1 600/4/1 602/3/1
f 603/2/1 601/1/1 602/4/1 604/3/1
f 605/2/1 603/1/1 604/4/1 606/3/1
f 607/2/1 605/1/1 606/4/1 608/3/1
f 609/2/1 607/1/1 608/4/1 610/3/1
f 611/2/1 609/1/1 610/4/1 612/3/1
f 613/2/1 611/1/1 612/4/1 614/3/1
f 615/2/1 613/1/1 614/4/1 616/3/1
f 617/2/1 615/1/1 616/4/1 618/3/1
f 619/2/1 617/1/1 618/4/1 620/3/1
f 621/2/1 619/1/1 620/4/1 622/3/1
f 623/2/1 621/1/1 622/4/1 624/3/1
f 625/2/1 623/1/1 624/4/1 626/3/1
f 627/2/1 625/1/1 626/4/1 628/3/1
f 629/2/1 627/1/1 628/4/1 630/3/1
f 631/2/1 629/1/1 630/4/1 632/3/1
f 633/2/1 631/1/1 632/4/1 634/3/1
f 635/2/1 633/1/1 634/4/1 636/3/1
f 637/2/1 635/1/1 636/4/1 638/3/1
f 639/2/1 637/1/1 638/4/1 640/3/1
f 641/2/1 639/1/1 640/4/1 642/3/1
f 643/2/1 641/1/1 642/4/1 644/3/1
f 645/2/1 643/1/1 644/4/1 646/3/1
f 647/2/1 645/1/1 646/4/1 648/3/1
f 649/2/1 647/1/1 648/4/1 650/3/1
f 651/2/1 649/1/1 650/4/1 652/3/1
f 653/2/1 651/1/1 652/4/1 654/3/1
f 655/2/1 656/1/1 657/4/1 658/3/1
f 659/2/1 655/1/1 658/4/1 660/3/1
f 661/2/1 659/1/1 660/4/1 662/3/1
f 663/2/1 661/1/1 662/4/1 664/3/1
f 665/2/1 663/1/1 664/4/1 666/3/1
f 573/1/1 572/2/1 667/3/1 668/4/1
f 592/1/1 591/2/1 669/3/1 670/4/1
f 671/2/1 672/1/1 673/4/1 674/3/1
f 593/2/1 671/1/1 674/4/1 675/3/1
f 594/2/1 593/1/1 675/4/1 676/3/1
f 596/2/1 595/1/1 677/4/1 678/3/1
f 668/1/1 667/2/1 679/3/1 680/4/1
f 670/1/1 669/2/1 681/3/1 682/4/1
f 678/2/1 677/1/1 683/4/1 684/3/1
f 680/1/1 679/2/1 685/3/1 686/4/1
f 687/1/1 680/2/1 686/3/1 688/4/1
f 689/1/1 687/2/1 688/3/1 690/4/1
f 691/1/1 689/2/1 690/3/1 692/4/1
f 693/1/1 691/2/1 692/3/1 694/4/1
f 695/1/1 693/2/1 694/3/1 696/4/1
f 697/1/1 695/2/1 696/3/1 698/4/1
f 682/1/1 681/2/1 699/3/1 700/4/1
f 700/1/1 699/2/1 701/3/1 702/4/1
f 702/1/1 701/2/1 703/3/1 704/4/1
f 704/1/1 703/2/1 705/3/1 706/4/1
f 707/1/1 708/2/1 709/3/1 710/4/1
f 711/1/1 707/2/1 710/3/1 712/4/1
f 713/1/1 711/2/1 712/3/1 714/4/1
f 715/1/1 713/2/1 714/3/1 716/4/1
f 717/1/1 715/2/1 716/3/1 718/4/1
f 719/1/1 717/2/1 718/3/1 720/4/1
f 721/1/1 719/2/1 720/3/1 722/4/1
f 723/1/1 721/2/1 722/3/1 724/4/1
f 725/1/1 723/2/1 724/3/1 726/4/1
f 727/1/1 725/2/1 726/3/1 728/4/1
f 729/1/1 727/2/1 728/3/1 730/4/1
f 706/1/1 705/2/1 731/3/1 732/4/1
f 710/1/1 709/2/1 733/3/1 734/4/1
f 732/1/1 731/2/1 735/3/1 736/4/1
f 734/1/1 733/2/1 737/3/1 738/4/1
f 736/1/1 735/2/1 739/3/1 740/4/1
f 738/1/1 737/2/1 741/3/1 742/4/1
f 740/1/1 739/2/1 743/3/1 744/4/1
f 742/1/1 741/2/1 745/3/1 746/4/1
f 744/1/1 743/2/1 747/3/1 748/4/1
f 746/1/1 745/2/1 749/3/1 750/4/1
f 748/1/1 747/2/1 751/3/1 752/4/1
f 750/1/1 749/2/1 753/3/1 754/4/1
f 752/1/1 751/2/1 755/3/1 756/4/1
f 754/1/1 753/2/1 757/3/1 758/4/1
f 756/1/1 755/2/1 759/3/1 760/4/1
f 761/1/1 756/2/1 760/3/1 762/4/1
f 763/1/1 761/2/1 762/3/1 764/4/1
f 765/1/1 763/2/1 764/3/1 766/4/1
f 757/1/1 765/2/1 766/3/1 767/4/1
f 758/1/1 757/2/1 767/3/1 768/4/1

