# Wavefront OBJ file automatically generated by Tiled2Unity

# Vertices (Count = 292)
v -75 -28 -0.27
v -76 -28 -0.27
v -76 -27 -0.27
v -75 -27 -0.27
v -74 -28 -0.27
v -74 -27 -0.27
v -73 -28 -0.27
v -73 -27 -0.27
v -72 -28 -0.27
v -72 -27 -0.27
v -71 -28 -0.27
v -71 -27 -0.27
v -61 -28 -0.27
v -62 -28 -0.27
v -62 -27 -0.27
v -61 -27 -0.27
v -60 -28 -0.27
v -60 -27 -0.27
v -59 -28 -0.27
v -59 -27 -0.27
v -58 -28 -0.27
v -58 -27 -0.27
v -57 -28 -0.27
v -57 -27 -0.27
v -76 -27 -0.26
v -77 -27 -0.26
v -77 -26 -0.26
v -76 -26 -0.26
v -70 -27 -0.26
v -71 -27 -0.26
v -71 -26 -0.26
v -70 -26 -0.26
v -62 -27 -0.26
v -63 -27 -0.26
v -63 -26 -0.26
v -62 -26 -0.26
v -56 -27 -0.26
v -57 -27 -0.26
v -57 -26 -0.26
v -56 -26 -0.26
v -79 -26 -0.25
v -80 -26 -0.25
v -80 -25 -0.25
v -79 -25 -0.25
v -78 -26 -0.25
v -78 -25 -0.25
v -77 -26 -0.25
v -77 -25 -0.25
v -69 -26 -0.25
v -70 -26 -0.25
v -70 -25 -0.25
v -69 -25 -0.25
v -63 -26 -0.25
v -64 -26 -0.25
v -64 -25 -0.25
v -63 -25 -0.25
v -55 -26 -0.25
v -56 -26 -0.25
v -56 -25 -0.25
v -55 -25 -0.25
v -54 -26 -0.25
v -54 -25 -0.25
v -53 -26 -0.25
v -53 -25 -0.25
v -67 -25 -0.24
v -68 -25 -0.24
v -68 -24 -0.24
v -67 -24 -0.24
v -66 -25 -0.24
v -66 -24 -0.24
v -65 -25 -0.24
v -65 -24 -0.24
v -83 -24 -0.23
v -84 -24 -0.23
v -84 -23 -0.23
v -83 -23 -0.23
v -82 -24 -0.23
v -82 -23 -0.23
v -72 -24 -0.23
v -73 -24 -0.23
v -73 -23 -0.23
v -72 -23 -0.23
v -60 -24 -0.23
v -61 -24 -0.23
v -61 -23 -0.23
v -60 -23 -0.23
v -50 -24 -0.23
v -51 -24 -0.23
v -51 -23 -0.23
v -50 -23 -0.23
v -49 -24 -0.23
v -49 -23 -0.23
v -83 -23 -0.22
v -84 -23 -0.22
v -84 -22 -0.22
v -83 -22 -0.22
v -72 -23 -0.22
v -73 -23 -0.22
v -73 -22 -0.22
v -72 -22 -0.22
v -60 -23 -0.22
v -61 -23 -0.22
v -61 -22 -0.22
v -60 -22 -0.22
v -49 -23 -0.22
v -50 -23 -0.22
v -50 -22 -0.22
v -49 -22 -0.22
v -83 -22 -0.21
v -84 -22 -0.21
v -84 -21 -0.21
v -83 -21 -0.21
v -72 -22 -0.21
v -73 -22 -0.21
v -73 -21 -0.21
v -72 -21 -0.21
v -71 -22 -0.21
v -71 -21 -0.21
v -70 -22 -0.21
v -70 -21 -0.21
v -69 -22 -0.21
v -69 -21 -0.21
v -63 -22 -0.21
v -64 -22 -0.21
v -64 -21 -0.21
v -63 -21 -0.21
v -62 -22 -0.21
v -62 -21 -0.21
v -61 -22 -0.21
v -61 -21 -0.21
v -60 -22 -0.21
v -60 -21 -0.21
v -49 -22 -0.21
v -50 -22 -0.21
v -50 -21 -0.21
v -49 -21 -0.21
v -80 -19 -0.18
v -81 -19 -0.18
v -81 -18 -0.18
v -80 -18 -0.18
v -79 -19 -0.18
v -79 -18 -0.18
v -78 -19 -0.18
v -78 -18 -0.18
v -67 -19 -0.18
v -68 -19 -0.18
v -68 -18 -0.18
v -67 -18 -0.18
v -66 -19 -0.18
v -66 -18 -0.18
v -65 -19 -0.18
v -65 -18 -0.18
v -54 -19 -0.18
v -55 -19 -0.18
v -55 -18 -0.18
v -54 -18 -0.18
v -53 -19 -0.18
v -53 -18 -0.18
v -52 -19 -0.18
v -52 -18 -0.18
v -69 -18 -0.17
v -70 -18 -0.17
v -70 -17 -0.17
v -69 -17 -0.17
v -63 -18 -0.17
v -64 -18 -0.17
v -64 -17 -0.17
v -63 -17 -0.17
v -70 -17 -0.16
v -71 -17 -0.16
v -71 -16 -0.16
v -70 -16 -0.16
v -62 -17 -0.16
v -63 -17 -0.16
v -63 -16 -0.16
v -62 -16 -0.16
v -74 -16 -0.15
v -75 -16 -0.15
v -75 -15 -0.15
v -74 -15 -0.15
v -73 -16 -0.15
v -73 -15 -0.15
v -72 -16 -0.15
v -72 -15 -0.15
v -71 -16 -0.15
v -71 -15 -0.15
v -61 -16 -0.15
v -62 -16 -0.15
v -62 -15 -0.15
v -61 -15 -0.15
v -60 -16 -0.15
v -60 -15 -0.15
v -59 -16 -0.15
v -59 -15 -0.15
v -58 -16 -0.15
v -58 -15 -0.15
v -85 -15 -0.14
v -86 -15 -0.14
v -86 -14 -0.14
v -85 -14 -0.14
v -47 -15 -0.14
v -48 -15 -0.14
v -48 -14 -0.14
v -47 -14 -0.14
v -85 -14 -0.13
v -86 -14 -0.13
v -86 -13 -0.13
v -85 -13 -0.13
v -47 -14 -0.13
v -48 -14 -0.13
v -48 -13 -0.13
v -47 -13 -0.13
v -85 -13 -0.12
v -86 -13 -0.12
v -86 -12 -0.12
v -85 -12 -0.12
v -78 -13 -0.12
v -79 -13 -0.12
v -79 -12 -0.12
v -78 -12 -0.12
v -77 -13 -0.12
v -77 -12 -0.12
v -76 -13 -0.12
v -76 -12 -0.12
v -75 -13 -0.12
v -75 -12 -0.12
v -68 -13 -0.12
v -69 -13 -0.12
v -69 -12 -0.12
v -68 -12 -0.12
v -67 -13 -0.12
v -67 -12 -0.12
v -66 -13 -0.12
v -66 -12 -0.12
v -65 -13 -0.12
v -65 -12 -0.12
v -64 -13 -0.12
v -64 -12 -0.12
v -57 -13 -0.12
v -58 -13 -0.12
v -58 -12 -0.12
v -57 -12 -0.12
v -56 -13 -0.12
v -56 -12 -0.12
v -55 -13 -0.12
v -55 -12 -0.12
v -54 -13 -0.12
v -54 -12 -0.12
v -47 -13 -0.12
v -48 -13 -0.12
v -48 -12 -0.12
v -47 -12 -0.12
v -85 -12 -0.11
v -86 -12 -0.11
v -86 -11 -0.11
v -85 -11 -0.11
v -47 -12 -0.11
v -48 -12 -0.11
v -48 -11 -0.11
v -47 -11 -0.11
v -85 -11 -0.1
v -86 -11 -0.1
v -86 -10 -0.1
v -85 -10 -0.1
v -81 -11 -0.1
v -82 -11 -0.1
v -82 -10 -0.1
v -81 -10 -0.1
v -80 -11 -0.1
v -80 -10 -0.1
v -79 -11 -0.1
v -79 -10 -0.1
v -53 -11 -0.1
v -54 -11 -0.1
v -54 -10 -0.1
v -53 -10 -0.1
v -52 -11 -0.1
v -52 -10 -0.1
v -51 -11 -0.1
v -51 -10 -0.1
v -47 -11 -0.1
v -48 -11 -0.1
v -48 -10 -0.1
v -47 -10 -0.1
v -85 -10 -0.09
v -86 -10 -0.09
v -86 -9 -0.09
v -85 -9 -0.09
v -47 -10 -0.09
v -48 -10 -0.09
v -48 -9 -0.09
v -47 -9 -0.09

# Texture cooridinates (Count = 4)
vt 1.525879E-05 0.6250153
vt 0.1249847 0.6250153
vt 0.1249847 0.7499847
vt 1.525879E-05 0.7499847

# Normal
vn 0 0 -1

# Groups (Count = 1)

g mesh_0001
f 1/1/1 2/2/1 3/3/1 4/4/1
f 5/1/1 1/2/1 4/3/1 6/4/1
f 7/1/1 5/2/1 6/3/1 8/4/1
f 9/1/1 7/2/1 8/3/1 10/4/1
f 11/1/1 9/2/1 10/3/1 12/4/1
f 13/1/1 14/2/1 15/3/1 16/4/1
f 17/1/1 13/2/1 16/3/1 18/4/1
f 19/1/1 17/2/1 18/3/1 20/4/1
f 21/1/1 19/2/1 20/3/1 22/4/1
f 23/1/1 21/2/1 22/3/1 24/4/1
f 25/1/1 26/2/1 27/3/1 28/4/1
f 29/1/1 30/2/1 31/3/1 32/4/1
f 33/1/1 34/2/1 35/3/1 36/4/1
f 37/1/1 38/2/1 39/3/1 40/4/1
f 41/1/1 42/2/1 43/3/1 44/4/1
f 45/1/1 41/2/1 44/3/1 46/4/1
f 47/1/1 45/2/1 46/3/1 48/4/1
f 49/1/1 50/2/1 51/3/1 52/4/1
f 53/1/1 54/2/1 55/3/1 56/4/1
f 57/1/1 58/2/1 59/3/1 60/4/1
f 61/1/1 57/2/1 60/3/1 62/4/1
f 63/1/1 61/2/1 62/3/1 64/4/1
f 65/1/1 66/2/1 67/3/1 68/4/1
f 69/1/1 65/2/1 68/3/1 70/4/1
f 71/1/1 69/2/1 70/3/1 72/4/1
f 73/1/1 74/2/1 75/3/1 76/4/1
f 77/1/1 73/2/1 76/3/1 78/4/1
f 79/1/1 80/2/1 81/3/1 82/4/1
f 83/1/1 84/2/1 85/3/1 86/4/1
f 87/1/1 88/2/1 89/3/1 90/4/1
f 91/1/1 87/2/1 90/3/1 92/4/1
f 93/1/1 94/2/1 95/3/1 96/4/1
f 97/1/1 98/2/1 99/3/1 100/4/1
f 101/1/1 102/2/1 103/3/1 104/4/1
f 105/1/1 106/2/1 107/3/1 108/4/1
f 109/1/1 110/2/1 111/3/1 112/4/1
f 113/1/1 114/2/1 115/3/1 116/4/1
f 117/1/1 113/2/1 116/3/1 118/4/1
f 119/1/1 117/2/1 118/3/1 120/4/1
f 121/1/1 119/2/1 120/3/1 122/4/1
f 123/1/1 124/2/1 125/3/1 126/4/1
f 127/1/1 123/2/1 126/3/1 128/4/1
f 129/1/1 127/2/1 128/3/1 130/4/1
f 131/1/1 129/2/1 130/3/1 132/4/1
f 133/1/1 134/2/1 135/3/1 136/4/1
f 137/1/1 138/2/1 139/3/1 140/4/1
f 141/1/1 137/2/1 140/3/1 142/4/1
f 143/1/1 141/2/1 142/3/1 144/4/1
f 145/1/1 146/2/1 147/3/1 148/4/1
f 149/1/1 145/2/1 148/3/1 150/4/1
f 151/1/1 149/2/1 150/3/1 152/4/1
f 153/1/1 154/2/1 155/3/1 156/4/1
f 157/1/1 153/2/1 156/3/1 158/4/1
f 159/1/1 157/2/1 158/3/1 160/4/1
f 161/1/1 162/2/1 163/3/1 164/4/1
f 165/1/1 166/2/1 167/3/1 168/4/1
f 169/1/1 170/2/1 171/3/1 172/4/1
f 173/1/1 174/2/1 175/3/1 176/4/1
f 177/1/1 178/2/1 179/3/1 180/4/1
f 181/1/1 177/2/1 180/3/1 182/4/1
f 183/1/1 181/2/1 182/3/1 184/4/1
f 185/1/1 183/2/1 184/3/1 186/4/1
f 187/1/1 188/2/1 189/3/1 190/4/1
f 191/1/1 187/2/1 190/3/1 192/4/1
f 193/1/1 191/2/1 192/3/1 194/4/1
f 195/1/1 193/2/1 194/3/1 196/4/1
f 197/1/1 198/2/1 199/3/1 200/4/1
f 201/1/1 202/2/1 203/3/1 204/4/1
f 205/1/1 206/2/1 207/3/1 208/4/1
f 209/1/1 210/2/1 211/3/1 212/4/1
f 213/1/1 214/2/1 215/3/1 216/4/1
f 217/1/1 218/2/1 219/3/1 220/4/1
f 221/1/1 217/2/1 220/3/1 222/4/1
f 223/1/1 221/2/1 222/3/1 224/4/1
f 225/1/1 223/2/1 224/3/1 226/4/1
f 227/1/1 228/2/1 229/3/1 230/4/1
f 231/1/1 227/2/1 230/3/1 232/4/1
f 233/1/1 231/2/1 232/3/1 234/4/1
f 235/1/1 233/2/1 234/3/1 236/4/1
f 237/1/1 235/2/1 236/3/1 238/4/1
f 239/1/1 240/2/1 241/3/1 242/4/1
f 243/1/1 239/2/1 242/3/1 244/4/1
f 245/1/1 243/2/1 244/3/1 246/4/1
f 247/1/1 245/2/1 246/3/1 248/4/1
f 249/1/1 250/2/1 251/3/1 252/4/1
f 253/1/1 254/2/1 255/3/1 256/4/1
f 257/1/1 258/2/1 259/3/1 260/4/1
f 261/1/1 262/2/1 263/3/1 264/4/1
f 265/1/1 266/2/1 267/3/1 268/4/1
f 269/1/1 265/2/1 268/3/1 270/4/1
f 271/1/1 269/2/1 270/3/1 272/4/1
f 273/1/1 274/2/1 275/3/1 276/4/1
f 277/1/1 273/2/1 276/3/1 278/4/1
f 279/1/1 277/2/1 278/3/1 280/4/1
f 281/1/1 282/2/1 283/3/1 284/4/1
f 285/1/1 286/2/1 287/3/1 288/4/1
f 289/1/1 290/2/1 291/3/1 292/4/1

