# Wavefront OBJ file automatically generated by Tiled2Unity

# Vertices (Count = 200)
v -39 -31 -0.3
v -40 -31 -0.3
v -40 -30 -0.3
v -39 -30 -0.3
v -38 -31 -0.3
v -38 -30 -0.3
v -37 -31 -0.3
v -37 -30 -0.3
v -36 -31 -0.3
v -36 -30 -0.3
v -35 -31 -0.3
v -35 -30 -0.3
v -43 -29 -0.28
v -44 -29 -0.28
v -44 -28 -0.28
v -43 -28 -0.28
v -42 -29 -0.28
v -42 -28 -0.28
v -32 -29 -0.28
v -33 -29 -0.28
v -33 -28 -0.28
v -32 -28 -0.28
v -31 -29 -0.28
v -31 -28 -0.28
v -44 -28 -0.27
v -45 -28 -0.27
v -45 -27 -0.27
v -44 -27 -0.27
v -30 -28 -0.27
v -31 -28 -0.27
v -31 -27 -0.27
v -30 -27 -0.27
v -45 -27 -0.26
v -46 -27 -0.26
v -46 -26 -0.26
v -45 -26 -0.26
v -29 -27 -0.26
v -30 -27 -0.26
v -30 -26 -0.26
v -29 -26 -0.26
v -46 -26 -0.25
v -47 -26 -0.25
v -47 -25 -0.25
v -46 -25 -0.25
v -42 -26 -0.25
v -43 -26 -0.25
v -43 -25 -0.25
v -42 -25 -0.25
v -41 -26 -0.25
v -41 -25 -0.25
v -40 -26 -0.25
v -40 -25 -0.25
v -34 -26 -0.25
v -35 -26 -0.25
v -35 -25 -0.25
v -34 -25 -0.25
v -33 -26 -0.25
v -33 -25 -0.25
v -32 -26 -0.25
v -32 -25 -0.25
v -28 -26 -0.25
v -29 -26 -0.25
v -29 -25 -0.25
v -28 -25 -0.25
v -46 -25 -0.24
v -47 -25 -0.24
v -47 -24 -0.24
v -46 -24 -0.24
v -28 -25 -0.24
v -29 -25 -0.24
v -29 -24 -0.24
v -28 -24 -0.24
v -47 -24 -0.23
v -48 -24 -0.23
v -48 -23 -0.23
v -47 -23 -0.23
v -27 -24 -0.23
v -28 -24 -0.23
v -28 -23 -0.23
v -27 -23 -0.23
v -48 -23 -0.22
v -49 -23 -0.22
v -49 -22 -0.22
v -48 -22 -0.22
v -38 -23 -0.22
v -39 -23 -0.22
v -39 -22 -0.22
v -38 -22 -0.22
v -37 -23 -0.22
v -37 -22 -0.22
v -36 -23 -0.22
v -36 -22 -0.22
v -26 -23 -0.22
v -27 -23 -0.22
v -27 -22 -0.22
v -26 -22 -0.22
v -48 -22 -0.21
v -49 -22 -0.21
v -49 -21 -0.21
v -48 -21 -0.21
v -26 -22 -0.21
v -27 -22 -0.21
v -27 -21 -0.21
v -26 -21 -0.21
v -48 -21 -0.2
v -49 -21 -0.2
v -49 -20 -0.2
v -48 -20 -0.2
v -26 -21 -0.2
v -27 -21 -0.2
v -27 -20 -0.2
v -26 -20 -0.2
v -48 -20 -0.19
v -49 -20 -0.19
v -49 -19 -0.19
v -48 -19 -0.19
v -44 -20 -0.19
v -45 -20 -0.19
v -45 -19 -0.19
v -44 -19 -0.19
v -43 -20 -0.19
v -43 -19 -0.19
v -42 -20 -0.19
v -42 -19 -0.19
v -41 -20 -0.19
v -41 -19 -0.19
v -33 -20 -0.19
v -34 -20 -0.19
v -34 -19 -0.19
v -33 -19 -0.19
v -32 -20 -0.19
v -32 -19 -0.19
v -31 -20 -0.19
v -31 -19 -0.19
v -30 -20 -0.19
v -30 -19 -0.19
v -26 -20 -0.19
v -27 -20 -0.19
v -27 -19 -0.19
v -26 -19 -0.19
v -48 -19 -0.18
v -49 -19 -0.18
v -49 -18 -0.18
v -48 -18 -0.18
v -26 -19 -0.18
v -27 -19 -0.18
v -27 -18 -0.18
v -26 -18 -0.18
v -48 -18 -0.17
v -49 -18 -0.17
v -49 -17 -0.17
v -48 -17 -0.17
v -26 -18 -0.17
v -27 -18 -0.17
v -27 -17 -0.17
v -26 -17 -0.17
v -45 -16 -0.15
v -46 -16 -0.15
v -46 -15 -0.15
v -45 -15 -0.15
v -29 -16 -0.15
v -30 -16 -0.15
v -30 -15 -0.15
v -29 -15 -0.15
v -44 -15 -0.14
v -45 -15 -0.14
v -45 -14 -0.14
v -44 -14 -0.14
v -30 -15 -0.14
v -31 -15 -0.14
v -31 -14 -0.14
v -30 -14 -0.14
v -43 -14 -0.13
v -44 -14 -0.13
v -44 -13 -0.13
v -43 -13 -0.13
v -42 -14 -0.13
v -42 -13 -0.13
v -32 -14 -0.13
v -33 -14 -0.13
v -33 -13 -0.13
v -32 -13 -0.13
v -31 -14 -0.13
v -31 -13 -0.13
v -41 -13 -0.12
v -42 -13 -0.12
v -42 -12 -0.12
v -41 -12 -0.12
v -40 -13 -0.12
v -40 -12 -0.12
v -39 -13 -0.12
v -39 -12 -0.12
v -35 -13 -0.12
v -36 -13 -0.12
v -36 -12 -0.12
v -35 -12 -0.12
v -34 -13 -0.12
v -34 -12 -0.12
v -33 -13 -0.12
v -33 -12 -0.12

# Texture cooridinates (Count = 4)
vt 1.525879E-05 0.6250153
vt 0.1249847 0.6250153
vt 0.1249847 0.7499847
vt 1.525879E-05 0.7499847

# Normal
vn 0 0 -1

# Groups (Count = 1)

g mesh_0001
f 1/1/1 2/2/1 3/3/1 4/4/1
f 5/1/1 1/2/1 4/3/1 6/4/1
f 7/1/1 5/2/1 6/3/1 8/4/1
f 9/1/1 7/2/1 8/3/1 10/4/1
f 11/1/1 9/2/1 10/3/1 12/4/1
f 13/1/1 14/2/1 15/3/1 16/4/1
f 17/1/1 13/2/1 16/3/1 18/4/1
f 19/1/1 20/2/1 21/3/1 22/4/1
f 23/1/1 19/2/1 22/3/1 24/4/1
f 25/1/1 26/2/1 27/3/1 28/4/1
f 29/1/1 30/2/1 31/3/1 32/4/1
f 33/1/1 34/2/1 35/3/1 36/4/1
f 37/1/1 38/2/1 39/3/1 40/4/1
f 41/1/1 42/2/1 43/3/1 44/4/1
f 45/1/1 46/2/1 47/3/1 48/4/1
f 49/1/1 45/2/1 48/3/1 50/4/1
f 51/1/1 49/2/1 50/3/1 52/4/1
f 53/1/1 54/2/1 55/3/1 56/4/1
f 57/1/1 53/2/1 56/3/1 58/4/1
f 59/1/1 57/2/1 58/3/1 60/4/1
f 61/1/1 62/2/1 63/3/1 64/4/1
f 65/1/1 66/2/1 67/3/1 68/4/1
f 69/1/1 70/2/1 71/3/1 72/4/1
f 73/1/1 74/2/1 75/3/1 76/4/1
f 77/1/1 78/2/1 79/3/1 80/4/1
f 81/1/1 82/2/1 83/3/1 84/4/1
f 85/1/1 86/2/1 87/3/1 88/4/1
f 89/1/1 85/2/1 88/3/1 90/4/1
f 91/1/1 89/2/1 90/3/1 92/4/1
f 93/1/1 94/2/1 95/3/1 96/4/1
f 97/1/1 98/2/1 99/3/1 100/4/1
f 101/1/1 102/2/1 103/3/1 104/4/1
f 105/1/1 106/2/1 107/3/1 108/4/1
f 109/1/1 110/2/1 111/3/1 112/4/1
f 113/1/1 114/2/1 115/3/1 116/4/1
f 117/1/1 118/2/1 119/3/1 120/4/1
f 121/1/1 117/2/1 120/3/1 122/4/1
f 123/1/1 121/2/1 122/3/1 124/4/1
f 125/1/1 123/2/1 124/3/1 126/4/1
f 127/1/1 128/2/1 129/3/1 130/4/1
f 131/1/1 127/2/1 130/3/1 132/4/1
f 133/1/1 131/2/1 132/3/1 134/4/1
f 135/1/1 133/2/1 134/3/1 136/4/1
f 137/1/1 138/2/1 139/3/1 140/4/1
f 141/1/1 142/2/1 143/3/1 144/4/1
f 145/1/1 146/2/1 147/3/1 148/4/1
f 149/1/1 150/2/1 151/3/1 152/4/1
f 153/1/1 154/2/1 155/3/1 156/4/1
f 157/1/1 158/2/1 159/3/1 160/4/1
f 161/1/1 162/2/1 163/3/1 164/4/1
f 165/1/1 166/2/1 167/3/1 168/4/1
f 169/1/1 170/2/1 171/3/1 172/4/1
f 173/1/1 174/2/1 175/3/1 176/4/1
f 177/1/1 173/2/1 176/3/1 178/4/1
f 179/1/1 180/2/1 181/3/1 182/4/1
f 183/1/1 179/2/1 182/3/1 184/4/1
f 185/1/1 186/2/1 187/3/1 188/4/1
f 189/1/1 185/2/1 188/3/1 190/4/1
f 191/1/1 189/2/1 190/3/1 192/4/1
f 193/1/1 194/2/1 195/3/1 196/4/1
f 197/1/1 193/2/1 196/3/1 198/4/1
f 199/1/1 197/2/1 198/3/1 200/4/1

